<svg
  width="120"
  height="40"
  viewBox="0 0 120 40"
  fill="none"
  xmlns="http://www.w3.org/2000/svg"
>
  <path
    d="M13.6 28V12H16.8V25.2H24.4V28H13.6ZM28.0906 28V12H38.4906V14.8H31.2906V18.8H37.6906V21.6H31.2906V25.2H38.4906V28H28.0906ZM42.1813 28V12H52.5813V14.8H45.3813V18.8H51.7813V21.6H45.3813V25.2H52.5813V28H42.1813ZM56.2719 28V12H59.4719V25.2H67.0719V28H56.2719ZM70.7625 28V12H81.1625V14.8H73.9625V18.8H80.3625V21.6H73.9625V25.2H81.1625V28H70.7625ZM84.7531 28V12H87.9531V25.2H95.5531V28H84.7531Z"
    fill="#0c8ee5"
  />
  <circle cx="104" cy="20" r="8" fill="#0c8ee5" />
</svg>
